<svg width="358" height="70" viewBox="0 0 358 70" fill="none" xmlns="http://www.w3.org/2000/svg">
<path d="M49.2 70L46.2 59.9H22.9L19.9 70H0.5L23.6 -4.76837e-06H45.4L68.5 70H49.2ZM27.5 44.5H41.6L34.5 20.7L27.5 44.5ZM84.1859 70L64.5859 -4.76837e-06H83.8859L94.6859 44.1L107.186 -4.76837e-06H121.286L133.786 44.1L144.686 -4.76837e-06H163.886L144.386 70H125.486L114.286 30.5L103.086 70H84.1859ZM208.673 70L205.673 59.9H182.373L179.373 70H159.973L183.073 -4.76837e-06H204.873L227.973 70H208.673ZM186.973 44.5H201.073L193.973 20.7L186.973 44.5ZM269.563 70L257.363 47.4H250.963V70H233.063V-4.76837e-06H261.063C268.196 -4.76837e-06 274.163 2.3 278.962 6.9C283.829 11.4333 286.263 17.2 286.263 24.2C286.263 28.4 285.196 32.2667 283.063 35.8C280.929 39.2667 278.029 42.0333 274.363 44.1L288.763 70H269.563ZM250.963 16.5V32.2H260.863C263.063 32.2667 264.863 31.5667 266.263 30.1C267.663 28.6333 268.363 26.7333 268.363 24.4C268.363 22.0667 267.663 20.1667 266.263 18.7C264.863 17.2333 263.063 16.5 260.863 16.5H250.963ZM323.574 -4.76837e-06C333.241 -4.76837e-06 341.308 3.36666 347.774 10.1C354.308 16.7667 357.574 25.0667 357.574 35C357.574 44.9333 354.308 53.2667 347.774 60C341.308 66.6667 333.241 70 323.574 70H295.074V-4.76837e-06H323.574ZM323.574 52.7C328.441 52.7 332.408 51.1 335.474 47.9C338.541 44.6333 340.074 40.3333 340.074 35C340.074 29.6667 338.541 25.4 335.474 22.2C332.408 18.9333 328.441 17.3 323.574 17.3H313.474V52.7H323.574Z" fill="#F7F7F7"/>
</svg>
